<svg width="90" height="90" viewBox="0 0 90 90" fill="none" xmlns="http://www.w3.org/2000/svg">
<circle cx="44.655" cy="44.655" r="44.655" fill="#23C281"/>
<path d="M59.22 35.3718H31.0505C29.1058 35.3718 27.5293 36.9483 27.5293 38.893V56.4989C27.5293 58.4436 29.1058 60.0201 31.0505 60.0201H59.22C61.1646 60.0201 62.7411 58.4436 62.7411 56.4989V38.893C62.7411 36.9483 61.1646 35.3718 59.22 35.3718Z" stroke="white" stroke-width="3.82569" stroke-linecap="round" stroke-linejoin="round"/>
<path d="M52.1776 60.0202V31.8508C52.1776 30.9169 51.8066 30.0213 51.1463 29.3609C50.4859 28.7006 49.5903 28.3296 48.6564 28.3296H41.614C40.6802 28.3296 39.7845 28.7006 39.1242 29.3609C38.4638 30.0213 38.0929 30.9169 38.0929 31.8508V60.0202" stroke="white" stroke-width="3.82569" stroke-linecap="round" stroke-linejoin="round"/>
</svg>
